<?xml version="1.0" encoding="UTF-8"?>
<svg id="Layer_2" data-name="Layer 2" xmlns="http://www.w3.org/2000/svg" xmlns:xlink="http://www.w3.org/1999/xlink" viewBox="0 0 72 72">
  <defs>
    <style>
      .cls-1 {
        fill: none;
      }

      .cls-2 {
        clip-path: url(#clippath);
      }

      .cls-3 {
        fill: #ec4062;
      }

      .cls-4 {
        fill: #ec3f61;
      }

      .cls-5 {
        fill: #fe6280;
      }

      .cls-6 {
        fill: #c90128;
      }

      .cls-7 {
        fill: #c80128;
      }

      .cls-8 {
        fill: #da2044;
      }

      .cls-9 {
        fill: #4f5052;
      }

      .cls-10 {
        fill: #505154;
      }

      .cls-11 {
        fill: #4e4f52;
      }
    </style>
    <clipPath id="clippath">
      <rect class="cls-1" width="72" height="72"/>
    </clipPath>
  </defs>
  <g id="Layer_1-2" data-name="Layer 1">
    <g class="cls-2">
      <g id="bQzdl2.tif">
        <g>
          <path class="cls-9" d="M69.58,33.65c-.77,1.53-1.24,3.19-1.88,4.78-.41,1-.79,2.02-1.24,3-.32,.7-.84,1.26-1.6,1.51-.3,.1-.71,.21-.84-.26-.12-.42,.21-.46,.52-.57,1.17-.41,1.97-2.23,1.52-3.37-.63-1.6-1.25-3.21-1.89-4.8-.14-.36-.34-.71,.16-.89,.53-.19,.58,.27,.7,.6,.57,1.5,1.15,3.01,1.79,4.69,.61-1.69,1.17-3.21,1.69-4.74,.24-.7,.56-.76,1.06-.27v.33Z"/>
          <path class="cls-5" d="M12.89,28.98c.23,.84,.09,1.7,.1,2.55,0,.47-.23,.66-.7,.39-.55-.32-1.12-.61-1.67-.93-.52-.3-.48-.62,0-.93,.58-.36,1.18-.72,1.76-1.08,.17,0,.34,0,.51,0Z"/>
          <path class="cls-11" d="M46.86,33.82c.75-.79,1.57-1.08,2.51-.73,1.14,.43,1.68,1.37,1.77,2.52,.08,1.1,.02,2.22,.03,3.33,0,.66-.46,.76-.97,.76-.54,0-.91-.18-.89-.82,.03-.94,.02-1.89,0-2.83-.01-.88-.53-1.48-1.25-1.48-.71,0-1.17,.54-1.19,1.43-.02,.92-.03,1.83,0,2.75,.03,.7-.31,.96-.95,.96-.62,0-.9-.29-.89-.93,.03-1.55,.02-3.11,0-4.66,0-.51,.04-.95,.67-1.05,.59-.09,.98,.12,1.15,.77Z"/>
          <path class="cls-11" d="M29.74,35.53c0,.47,.01,.94,0,1.41-.06,1.64-1.38,2.88-3.07,2.89-1.69,0-3.05-1.23-3.11-2.86-.03-1,.02-2-.02-3-.02-.65,.35-.94,.91-.95,.61,0,.98,.3,.95,.99-.04,.91-.02,1.83,0,2.75,.01,.85,.57,1.5,1.25,1.5,.7,0,1.23-.63,1.24-1.49,.01-.94,.03-1.89,0-2.83-.02-.67,.38-.9,.93-.91,.57-.01,.96,.26,.93,.92-.02,.53,0,1.05,0,1.58Z"/>
          <path class="cls-11" d="M32.5,34.01c.6-.64,1.13-1.11,1.96-1.06,.56,.03,.85,.27,.86,.79,0,.48-.26,.75-.77,.81-1.45,.18-1.92,.72-1.94,2.16,0,.69-.02,1.39,0,2.08,.02,.66-.35,.89-.94,.9-.59,.01-.94-.21-.93-.88,.03-1.61,.03-3.22,0-4.82-.01-.58,.18-.92,.77-.96,.59-.04,.98,.19,.99,.97Z"/>
          <path class="cls-11" d="M37.59,36.44c0,.8-.02,1.61,0,2.41,.02,.62-.32,.84-.88,.85-.58,0-.96-.2-.95-.87,.02-1.63,.02-3.27,0-4.9,0-.65,.33-.91,.93-.9,.59,0,.93,.25,.91,.91-.04,.83,0,1.66,0,2.49Z"/>
          <path class="cls-3" d="M7.91,31.52c.06-.43-.28-1.05,.17-1.3,.47-.26,.9,.28,1.33,.5,.89,.47,1.74,.99,2.62,1.48,.48,.27,.54,.53,.02,.83-.56,.32-1.12,.63-1.67,.96-.25,.15-.46,.14-.7-.01-.16-.11-.33-.2-.51-.28-.98-.4-1.62-.99-1.26-2.18Z"/>
          <path class="cls-6" d="M7.88,39.91c0-1.27,.71-2.15,2-2.48,.45-.12,.75,.19,1.05,.39,.49,.34,1.4,.44,1.41,1.02,0,.67-.93,.74-1.44,1.08-.65,.43-1.35,.78-2.03,1.16-.85,.47-.97,.39-.98-.59,0-.19,0-.39,0-.58Z"/>
          <path class="cls-8" d="M7.5,39.9q0,1.74-1.54,.87c-.83-.47-1.66-.92-2.47-1.41-.73-.43-.73-.56-.03-.99,.14-.09,.31-.15,.43-.26,.96-.85,1.82-.7,2.9-.03,.86,.53,.68,1.14,.71,1.82Z"/>
          <path class="cls-8" d="M2.43,35.74c0-.61,0-1.22,0-1.83,.01-.74,.16-.82,.85-.46,.12,.07,.24,.14,.37,.2,1.57,.88,1.76,1.26,1.5,3.02-.04,.25-.15,.39-.36,.51-.56,.31-1.11,.65-1.67,.96-.45,.25-.68,.12-.68-.4,0-.67,0-1.33,0-2Z"/>
          <path class="cls-4" d="M7.5,31.63c0,1.26-.74,2.17-2.03,2.45-.47,.1-.77-.27-1.12-.46-.5-.27-1.31-.43-1.31-1,0-.53,.81-.66,1.27-.95,.71-.44,1.45-.84,2.18-1.25,.87-.49,1-.42,1.01,.54,0,.22,0,.44,0,.66Z"/>
          <path class="cls-7" d="M12.96,35.73c0,.67,0,1.33,0,2,0,.48-.18,.7-.66,.42-.56-.32-1.11-.65-1.67-.95-.25-.14-.35-.31-.38-.59-.2-1.82,.39-2.71,2.16-3.31,.48-.16,.54,.09,.55,.44,0,.67,0,1.33,0,2Z"/>
          <path class="cls-10" d="M36.62,29.8c.62,.02,1.04,.3,1.04,.88,0,.55-.4,.83-.94,.84-.56,0-1.02-.21-1.04-.82-.02-.61,.42-.84,.94-.9Z"/>
          <path class="cls-11" d="M22.54,30.17c0-.64-.17-1.02-.87-1.02-.69,0-1.02,.28-1,1.01,.04,1.18,.01,2.37,.01,3.75-.88-.94-1.8-1.22-2.83-.71-1.08,.55-1.51,1.51-1.56,2.67-.01,.36-.02,.72,0,1.08,.08,1.18,.55,2.17,1.68,2.69,1.05,.48,1.96,.1,2.78-.74,.08,.79,.59,.85,1.15,.77,.61-.08,.62-.52,.62-1,0-2.83-.02-5.67,0-8.5Zm-2.01,7.41c-.33,.43-.73,.79-1.34,.65-.61-.15-.96-.58-1.03-1.17-.06-.44-.05-.89,0-1.33,.07-.69,.66-1.19,1.3-1.17,.7,.02,1.19,.54,1.22,1.31,0,.19,0,.39,0,.63-.04,.33,.11,.74-.15,1.08Z"/>
          <path class="cls-11" d="M44.06,38.57c0-.86,0-1.72,0-2.59-.01-1.11-.28-2.11-1.39-2.65-1.19-.57-2.39-.52-3.55,.1-.55,.29-.54,.75-.21,1.2,.29,.4,.64,.16,.98,.02,1.06-.42,1.87-.22,2.2,.51,.22,.48,.2,.78-.47,.77-.76-.01-1.52,0-2.23,.32-.86,.39-1.26,1.24-1.04,2.22,.2,.87,.81,1.33,1.76,1.37,.86,.03,1.49-.39,2.13-.99,.11,.79,.59,.94,1.23,.82,.66-.12,.61-.62,.61-1.1Zm-3.19-.07c-.49,0-.72-.28-.75-.72-.04-.56,.54-.91,1.53-.93,.26,.02,.59-.09,.57,.37-.02,.58-.76,1.27-1.35,1.27Z"/>
          <path class="cls-11" d="M56.12,33.19c-1.09-.49-2.02-.15-2.82,.7-.14-.33,.03-.85-.53-.81-.56,.04-.42,.5-.42,.83,0,2.78,0,5.55,0,8.33,0,.34-.04,.73,.44,.74,.49,0,.45-.4,.45-.74,0-1.09,0-2.18,0-3.42,.9,.95,1.84,1.29,2.91,.78,1.08-.52,1.57-1.45,1.57-2.64,0-.33,0-.67,0-1,.04-1.25-.42-2.23-1.61-2.76Zm.65,4.13c-.08,.91-.92,1.68-1.79,1.66-.94-.03-1.72-.82-1.73-1.78,0-.55-.04-1.11,0-1.66,.09-1.04,.87-1.75,1.81-1.7,.93,.05,1.67,.84,1.71,1.83,0,.25,0,.5,0,.75,0,0,0,0,0,0,0,.3,.02,.61,0,.91Z"/>
          <path class="cls-11" d="M63.31,34.98c-.28-1.78-2.58-2.67-4.11-1.63-.24,.16-.37,.35-.22,.62,.14,.26,.36,.19,.58,.1,.18-.08,.36-.16,.55-.21,1.24-.31,2.16,.28,2.34,1.48,.07,.46,0,.74-.58,.7-.73-.04-1.46,.02-2.16,.25-.99,.31-1.43,1.03-1.27,2.05,.13,.87,.79,1.42,1.76,1.48,.88,.06,1.56-.33,2.24-.98,.09,.41-.02,.82,.49,.85,.33,.02,.46-.18,.46-.46-.02-1.41,.14-2.84-.08-4.24Zm-3.31,3.96c-.41-.16-.61-.49-.65-.9-.04-.44,.09-.82,.52-1.05,.73-.39,1.52-.35,2.3-.33,.49,.01,.18,.43,.3,.58-.02,1.21-1.39,2.12-2.47,1.7Z"/>
        </g>
      </g>
    </g>
  </g>
</svg>