<svg xmlns="http://www.w3.org/2000/svg" viewBox="0 0 72 72"><defs><style>.cls-1{fill:#00bdda;}.cls-2{fill:#191335;}.cls-3{fill:#1a1335;}.cls-4{fill:#00a9f3;}.cls-5{fill:#346ce5;}.cls-6{fill:#1888f3;}.cls-7{fill:#2843e9;}.cls-8{fill:#1624f1;}.cls-9{fill:#090ff6;}.cls-10{fill:none;}</style></defs><g id="Layer_2" data-name="Layer 2"><g id="Layer_1-2" data-name="Layer 1"><path class="cls-1" d="M8.86,30.11l2.07-3.66c.49-.85,1-1.71,1.47-2.55a4.81,4.81,0,0,1,3.34-2.35,4.92,4.92,0,0,1,5.75,3.69A4.85,4.85,0,0,1,20.3,29.8l-3.17,3.51-1.4,1.52s-.06.1-.13.1-.15.06-.22.1a4.4,4.4,0,0,1-6.57-3.18,4.65,4.65,0,0,1,0-1.29A1,1,0,0,0,8.86,30.11Z"/><path class="cls-2" d="M52.71,33.29H47.83c0-.26.08-.5.11-.74s.09-.61.15-.92a1.28,1.28,0,0,1,1.35-1.11h7.11a3.24,3.24,0,0,1,.62,0l-.39,2.52a.57.57,0,0,1-.17.28L51.43,40,50.59,41H55.7c-.1.63-.18,1.24-.31,1.83a1.26,1.26,0,0,1-1.22,1H46.44c-.29,0-.29,0-.25-.29.12-.74.24-1.47.35-2.21a.67.67,0,0,1,.17-.32l3.48-4.43,2.37-3A.59.59,0,0,0,52.71,33.29Z"/><path class="cls-3" d="M63.09,33.29H58.16c.1-.6.18-1.18.29-1.75a1.26,1.26,0,0,1,1.28-1h7.45a.71.71,0,0,1,.32,0c0,.31-.09.62-.14.94s-.15.91-.22,1.37a1.05,1.05,0,0,1-.23.53Q64,37.07,61.13,40.76A.64.64,0,0,0,61,41h5a2.32,2.32,0,0,1-.07.61c0,.33-.1.67-.16,1a1.28,1.28,0,0,1-1.35,1.18H56.7c-.21,0-.22,0-.19-.21l.12-.75c.07-.46.15-.91.22-1.37a1.13,1.13,0,0,1,.22-.53l5.81-7.39Z"/><path class="cls-2" d="M29.21,36.25l4.68.14c-.08.51-.16,1-.24,1.47,0,.27-.11.54-.14.81s-.07.18-.21.19c-.9,0-1.79.06-2.69.09L29,39c-.14,0-.2,0-.22.18-.16,1-.33,2-.49,3L28,43.66c0,.21,0,.21-.25.21H25c-.24,0-.24,0-.21-.24q.61-3.55,1.21-7.11c.18-1.06.35-2.12.52-3.18a3.59,3.59,0,0,1,.08-.35,3.14,3.14,0,0,1,2.73-2.41,10.6,10.6,0,0,1,1.95-.05c1.36,0,2.72.11,4.07.23h.06c.2,0,.21,0,.18.23s-.09.57-.14.86-.13.86-.2,1.29c0,.27,0,.27-.31.27H30.88a2.88,2.88,0,0,0-.59,0,.9.9,0,0,0-.7.59,3.17,3.17,0,0,0-.19.85c-.07.41-.13.82-.19,1.23A.64.64,0,0,0,29.21,36.25Z"/><path class="cls-4" d="M8.86,30.11c.09,0,.13.07.1.16a4,4,0,0,0-.1,1.15,4,4,0,0,0,.79,2.34,4.35,4.35,0,0,0,2.61,1.71,4.19,4.19,0,0,0,2,0A3.67,3.67,0,0,0,15.36,35c.07-.05.15-.13.24,0-.06.17-.26.23-.33.4a.16.16,0,0,1,0,.15c-.73.81-1.47,1.62-2.19,2.44a1.85,1.85,0,0,0-.49,1.17,3.31,3.31,0,0,1-2.42,2.8.35.35,0,0,0-.19.06c-.81,0-1.62,0-2.43,0a3.27,3.27,0,0,1-2.95-2.62A3.38,3.38,0,0,1,5,37c1-1.73,2-3.45,2.94-5.19C8.21,31.21,8.5,30.64,8.86,30.11Z"/><path class="cls-5" d="M15.21,35.44l.06-.11h2.35a3.58,3.58,0,0,1,1.22.19,3.31,3.31,0,0,1,1.6,5,19.31,19.31,0,0,1-1.32,1.55,5.09,5.09,0,0,1-.62.69,1.2,1.2,0,0,0-.45.15,3.13,3.13,0,0,1-3.45-.63c-.09-.1-.21-.2-.16-.37.24-.11.48-.2.73-.29a3.23,3.23,0,0,0,1.42-5,3.75,3.75,0,0,0-1.13-.93C15.35,35.66,15.19,35.63,15.21,35.44Z"/><path class="cls-6" d="M15.21,35.44a.47.47,0,0,0,.25.21A3.32,3.32,0,0,1,17,37.09a3.21,3.21,0,0,1-.1,3.29,3.15,3.15,0,0,1-1.78,1.4c-.2.06-.37.22-.61.17a.34.34,0,0,1-.23.08c-.58,0-1.15,0-1.73,0a.45.45,0,0,1-.11,0c-.09-.07-.2,0-.3,0H9.94c.06-.14.21-.13.32-.17a3.18,3.18,0,0,0,1.34-.84,3.3,3.3,0,0,0,.88-1.73,2.59,2.59,0,0,1,0-.48,2.09,2.09,0,0,1,.43-.82c.21-.23.4-.47.62-.69.46-.5.9-1,1.35-1.51A1.06,1.06,0,0,1,15.21,35.44Z"/><path class="cls-7" d="M12.4,42a.46.46,0,0,1,.3,0h1.77c0,.27.23.39.4.52a3,3,0,0,0,2.32.66,2.54,2.54,0,0,0,1-.31c.1-.06.21-.14.32,0-.47.48-.87,1-1.31,1.54l-1.37,1.57s-.05.08-.1.09a.71.71,0,0,0-.38.09,2.61,2.61,0,0,1-3.55-2.4.73.73,0,0,0,0-.33Z"/><path class="cls-8" d="M11.75,43.37c.05,0,.11,0,.11,0s0,.2,0,.31A2.57,2.57,0,0,0,14,46.18a2.42,2.42,0,0,0,1.3-.15l.29-.1c.07,0,.1,0,.12.08-.36.4-.71.81-1.06,1.22a11.6,11.6,0,0,1-1,1.18,3.87,3.87,0,0,1-1.13.25,2.19,2.19,0,0,1-2.13-2,.89.89,0,0,0,0-.36l1-2.13A6.59,6.59,0,0,1,11.75,43.37Z"/><path class="cls-9" d="M10.33,46.25c.15,0,.12.14.12.24a2,2,0,0,0,.38,1.21,2,2,0,0,0,1.65.88,1.75,1.75,0,0,0,.84-.16c.09,0,.2-.14.31,0-.39.45-.77.91-1.16,1.35a8.37,8.37,0,0,1-.62.7,1.65,1.65,0,0,1-2.67-1.85c.22-.51.48-1,.73-1.52A5.49,5.49,0,0,1,10.33,46.25Z"/><path class="cls-2" d="M45.19,43.68c0-.11,0-.22,0-.33-.11-.72-.21-1.44-.32-2.16l-.54-3.66c-.18-1.23-.35-2.46-.54-3.69-.11-.76-.21-1.52-.33-2.27a1.25,1.25,0,0,0-1.26-1.05h-2a1.16,1.16,0,0,0-.88.37,1.91,1.91,0,0,0-.35.58q-2.81,6-5.6,12.05a.59.59,0,0,0-.1.29c1,0,2,0,3,0,.15,0,.19-.08.24-.19.29-.67.59-1.34.88-2a.31.31,0,0,1,.33-.22h3.77c.24,0,.24,0,.27.23s0,.22.05.33c.06.56.13,1.11.19,1.66,0,.15.07.2.23.2.93,0,1.87,0,2.8,0h.09C45.17,43.81,45.2,43.77,45.19,43.68Zm-6.55-5.09,2.2-5.28h.06l.53,5.28Z"/><rect class="cls-10" width="72" height="72"/></g></g></svg>