<svg xmlns="http://www.w3.org/2000/svg" viewBox="0 0 72 72"><defs><style>.cls-1{fill:#d24d57;}.cls-2{fill:#446cb3;}.cls-3{fill:none;}</style></defs><g id="Layer_2" data-name="Layer 2"><g id="Layer_1-2" data-name="Layer 1"><path class="cls-1" d="M14.59,41.28l1.86,3.21.89-.55.32-1.07-2-3.45Zm-6-12.7-.88.76,2.35,4.06,1.07-1.85L9,27.84Zm2,9.93L8,43l.33,1.2.8.57,3.76-6.52L14,36.41l4.16-7.22-.69-1-.24-.34-1,.93Z"/><path class="cls-2" d="M8.5,27,7.43,28.87h0l-3.3,5.71h0L3.05,36.43l5.44,9.43L9.57,44,5.2,36.43l4.37-7.56H12.7L13.78,27Zm7.68,1.86,4.37,7.56L16.18,44H13.06L12,45.86h5.27L18.33,44l3.29-5.71,1.07-1.86-1.07-1.87-3.3-5.69L17.25,27Z"/><path class="cls-2" d="M31.91,33.05l-2,2.91-2-2.91H26.33L29.11,37,26.19,41h1.59L29.92,38,32.05,41h1.59L30.73,37l2.77-3.9Zm6,1.05a1.63,1.63,0,0,1,1.33.55,2.41,2.41,0,0,1,.47,1.55H35.89a2.68,2.68,0,0,1,.62-1.53,1.88,1.88,0,0,1,1.43-.57m0-1.19a3.19,3.19,0,0,0-2.57,1.14,4.63,4.63,0,0,0-.94,3.05,4.16,4.16,0,0,0,1,3,3.7,3.7,0,0,0,2.79,1.07A6.7,6.7,0,0,0,39.63,41a5.07,5.07,0,0,0,1.2-.39l.06,0V39.35l-.14.06a6,6,0,0,1-2.44.51,2.31,2.31,0,0,1-1.78-.67,3,3,0,0,1-.66-1.9h5.35V36.5a3.74,3.74,0,0,0-.88-2.6,3,3,0,0,0-2.38-1m8.84,0a3.34,3.34,0,0,0-1.5.33,2.55,2.55,0,0,0-1,.78l-.17-1H43v8h1.38V36.85A3.24,3.24,0,0,1,45,34.74a2.13,2.13,0,0,1,1.71-.62,1.68,1.68,0,0,1,1.28.43,2,2,0,0,1,.4,1.35V41h1.38V35.86a2.58,2.58,0,0,0-2.92-3M55,40a1.76,1.76,0,0,1-1.53-.72,3.83,3.83,0,0,1-.52-2.18,4,4,0,0,1,.53-2.22A1.69,1.69,0,0,1,55,34.1a2,2,0,0,1,1.68.66,3.82,3.82,0,0,1,.53,2.29v.25a3.23,3.23,0,0,1-.52,2.06A2.07,2.07,0,0,1,55,40Zm2.18-6.92,0,.56,0,.35a3.26,3.26,0,0,0-4.85,0,4.78,4.78,0,0,0-.87,3,4.69,4.69,0,0,0,.87,3,3,3,0,0,0,2.44,1.07,2.93,2.93,0,0,0,2.44-1.09l.14.95h1.14V29.79H57.17v3.27Zm4.37-2.89a.79.79,0,0,0-.56.22.84.84,0,0,0-.23.66.88.88,0,0,0,.23.67.75.75,0,0,0,.56.22.81.81,0,0,0,.56-.21.93.93,0,0,0,.24-.67.86.86,0,0,0-.24-.66.75.75,0,0,0-.56-.23M60.85,41h1.38v-8H60.85Zm7.33-1.16-.45.1a3.73,3.73,0,0,1-.59,0,1,1,0,0,1-.83-.34,1.42,1.42,0,0,1-.31-1V34.18h2.26V33.06H66v-1.8h-.86l-.5,1.68-1.13.5v.73h1.11V38.7c0,1.64.79,2.48,2.36,2.48a4.36,4.36,0,0,0,.68-.07,2.18,2.18,0,0,0,.59-.16l.06,0V39.82l-.13,0Z"/><rect class="cls-3" width="72" height="72"/></g></g></svg>