<svg width="72" height="72" viewBox="0 0 72 72" fill="none" xmlns="http://www.w3.org/2000/svg">
<g clip-path="url(#clip0_474_6595)">
<path d="M25.9401 22.73V35.01H28.8301V25.8C28.8266 25.0174 28.5264 24.2653 27.99 23.6955C27.4536 23.1257 26.721 22.7806 25.9401 22.73Z" fill="#0CA49D"/>
<path d="M10.5901 32.87C10.8964 32.8838 11.2024 32.8362 11.4901 32.73C11.6984 32.6534 11.8865 32.5303 12.0401 32.37C12.1682 32.2269 12.2607 32.0556 12.3101 31.87C12.358 31.6838 12.3816 31.4922 12.3801 31.3C12.3808 31.1006 12.3539 30.902 12.3001 30.71C12.2417 30.5389 12.138 30.3869 12.0001 30.27C11.8414 30.1325 11.6532 30.0332 11.4501 29.98C11.165 29.9139 10.8727 29.8837 10.5801 29.89H8.63011V32.89L10.5901 32.87ZM8.59011 25.07V28.07H10.0401C10.3184 28.0742 10.5964 28.0507 10.8701 28C11.0939 27.9681 11.3084 27.8898 11.5001 27.77C11.6704 27.6575 11.8083 27.5023 11.9001 27.32C11.9955 27.0924 12.0399 26.8466 12.0301 26.6C12.0418 26.3583 12.0044 26.1168 11.9201 25.89C11.8595 25.7093 11.7484 25.5497 11.6001 25.43C11.4298 25.3075 11.2356 25.2223 11.0301 25.18C10.7626 25.1333 10.4916 25.1099 10.2201 25.11L8.59011 25.07ZM10.2201 22.99C10.9336 22.9782 11.6458 23.0555 12.3401 23.22C12.8516 23.3413 13.3341 23.5621 13.7601 23.87C14.1131 24.124 14.3898 24.4698 14.5601 24.87C14.733 25.2952 14.8181 25.751 14.8101 26.21C14.8142 26.4741 14.7771 26.7373 14.7001 26.99C14.6184 27.2381 14.4968 27.4711 14.3401 27.68C14.1628 27.9117 13.9502 28.1142 13.7101 28.28C13.4219 28.4765 13.1093 28.6346 12.7801 28.75C13.4452 28.8728 14.0562 29.1975 14.5301 29.68C14.9238 30.141 15.1275 30.7344 15.1001 31.34C15.1041 31.8295 15.0017 32.314 14.8001 32.76C14.6246 33.2051 14.3511 33.6049 14.0001 33.93C13.5815 34.2688 13.1033 34.5266 12.5901 34.69C11.9695 34.8869 11.3211 34.9815 10.6701 34.97H5.86011V22.97H10.2601L10.2201 22.99Z" fill="#0CA49D"/>
<path d="M23.4901 25.42C23.419 25.5324 23.3313 25.6336 23.2301 25.72C23.1248 25.7835 23.0031 25.8148 22.8801 25.81C22.7356 25.8051 22.5945 25.7638 22.4701 25.69L22.0001 25.43C21.7989 25.3208 21.588 25.2304 21.3701 25.16C21.112 25.0759 20.8416 25.0354 20.5701 25.04C20.1533 25.0075 19.7386 25.1245 19.4001 25.37C19.2741 25.4825 19.1746 25.6216 19.1088 25.7772C19.0431 25.9329 19.0128 26.1012 19.0201 26.27C19.0153 26.4924 19.0979 26.7078 19.2501 26.87C19.4226 27.0457 19.626 27.1881 19.8501 27.29C20.1292 27.4133 20.4166 27.5169 20.7101 27.6L21.7101 27.93C22.0535 28.0407 22.3879 28.1778 22.7101 28.34C23.0279 28.4955 23.3184 28.7015 23.5701 28.95C23.8303 29.2052 24.0347 29.5117 24.1701 29.85C24.3359 30.2523 24.4143 30.6851 24.4001 31.12C24.4067 31.6531 24.3116 32.1825 24.1201 32.68C23.9335 33.1552 23.647 33.5849 23.2801 33.94C22.8946 34.3147 22.4347 34.6043 21.9301 34.79C21.3472 35.0023 20.7305 35.1074 20.1101 35.1C19.7271 35.0986 19.3451 35.0584 18.9701 34.98C18.5873 34.9099 18.2122 34.8027 17.8501 34.66C17.5038 34.5207 17.1694 34.3535 16.8501 34.16C16.5481 33.9818 16.2693 33.7668 16.0201 33.52L16.8401 32.22C16.9096 32.1259 16.9982 32.0475 17.1001 31.99C17.2036 31.9212 17.3259 31.8863 17.4501 31.89C17.626 31.892 17.797 31.9478 17.9401 32.05L18.5101 32.4C18.7429 32.5348 18.9872 32.6486 19.2401 32.74C19.5598 32.8584 19.8995 32.9127 20.2401 32.9C20.6253 32.8924 20.9988 32.7668 21.3101 32.54C21.4496 32.4147 21.5596 32.26 21.6323 32.0871C21.7049 31.9142 21.7383 31.7273 21.7301 31.54C21.7403 31.2927 21.6583 31.0504 21.5001 30.86C21.3285 30.6737 21.121 30.5241 20.8901 30.42C20.6142 30.3002 20.3302 30.2 20.0401 30.12L19.0401 29.83C18.6976 29.7209 18.3634 29.5872 18.0401 29.43C17.7233 29.278 17.4356 29.0715 17.1901 28.82C16.9245 28.5307 16.7204 28.1905 16.5901 27.82C16.4213 27.3697 16.3432 26.8906 16.3601 26.41C16.3613 25.9501 16.4569 25.4954 16.641 25.074C16.825 24.6526 17.0936 24.2734 17.4301 23.96C17.8043 23.6099 18.2422 23.3349 18.7201 23.15C19.2797 22.9418 19.8732 22.8401 20.4701 22.85C20.832 22.8493 21.1933 22.8794 21.5501 22.94C21.8914 22.9928 22.2264 23.0799 22.5501 23.2C22.8549 23.3067 23.1494 23.4406 23.4301 23.6C23.6895 23.7488 23.931 23.9266 24.1501 24.13L23.4601 25.42H23.4901Z" fill="#0CA49D"/>
<path d="M29.1501 18.3V18C29.4782 18.343 29.8774 18.6102 30.3195 18.783C30.7617 18.9557 31.2363 19.0298 31.7101 19C32.1601 18.962 32.5983 18.8363 33.0001 18.63C32.6796 19.1843 32.53 19.821 32.5701 20.46C32.6333 21.2622 32.9892 22.0131 33.5701 22.57C33.2876 22.5099 32.9981 22.4897 32.7101 22.51C32.1496 22.5385 31.6059 22.7108 31.1313 23.0103C30.6566 23.3098 30.2671 23.7264 30.0001 24.22C29.9009 23.5363 29.5884 22.9014 29.1072 22.4058C28.626 21.9102 28.0005 21.5792 27.3201 21.46C27.905 21.1744 28.392 20.7217 28.7195 20.1592C29.047 19.5967 29.2004 18.9497 29.1601 18.3H29.1501Z" fill="#F9AD3C"/>
<path d="M34.1001 30.11C34.2128 30.1275 34.3275 30.1275 34.4401 30.11C34.5274 30.0866 34.6091 30.0458 34.6801 29.99C34.741 29.9344 34.7888 29.8662 34.8201 29.79C34.8306 29.707 34.8306 29.623 34.8201 29.54C34.8229 29.4601 34.8072 29.3806 34.7742 29.3078C34.7413 29.235 34.692 29.1707 34.6301 29.12C34.4651 29.0009 34.2631 28.9442 34.0601 28.96H33.3201V30.16L34.1001 30.11ZM33.3601 27.41V28.54H34.0001C34.1128 28.5572 34.2275 28.5572 34.3401 28.54C34.4274 28.5166 34.5091 28.4758 34.5801 28.42C34.6486 28.3761 34.6985 28.3084 34.7201 28.23C34.7578 28.1558 34.775 28.073 34.7701 27.99C34.7773 27.9076 34.7647 27.8248 34.7334 27.7482C34.7021 27.6717 34.653 27.6038 34.5901 27.55C34.4184 27.4474 34.2199 27.3986 34.0201 27.41H33.3601ZM33.9901 27.05C34.1753 27.0468 34.3601 27.0669 34.5401 27.11C34.6756 27.141 34.8022 27.2025 34.9101 27.29C35.0074 27.3618 35.0834 27.4585 35.1301 27.57C35.1802 27.6868 35.2041 27.813 35.2001 27.94C35.2106 28.023 35.2106 28.107 35.2001 28.19C35.1678 28.2641 35.1275 28.3345 35.0801 28.4C35.0257 28.4724 34.9578 28.5335 34.8801 28.58C34.7941 28.6376 34.6996 28.6814 34.6001 28.71C34.8108 28.7382 35.0069 28.8328 35.1601 28.98C35.2265 29.0469 35.2785 29.1266 35.3129 29.2143C35.3473 29.302 35.3634 29.3958 35.3601 29.49C35.3612 29.6274 35.334 29.7636 35.2801 29.89C35.2233 30.0094 35.1415 30.1151 35.0401 30.2C34.9285 30.2919 34.7991 30.36 34.6601 30.4C34.495 30.4505 34.3228 30.4742 34.1501 30.47H32.9001V27.04H34.0001L33.9901 27.05Z" fill="#0CA49D"/>
<path d="M37.7701 29.2L37.2301 27.81C37.2273 27.76 37.2273 27.71 37.2301 27.66L37.1201 27.54C37.0926 27.6484 37.0592 27.7552 37.0201 27.86L36.4801 29.25H37.7701V29.2ZM38.7701 30.47H38.4101C38.3776 30.48 38.3427 30.48 38.3101 30.47C38.2855 30.4471 38.2652 30.42 38.2501 30.39L37.8901 29.54H36.3601L36.0401 30.37C36.0292 30.4024 36.0082 30.4304 35.9801 30.45C35.9476 30.46 35.9127 30.46 35.8801 30.45H35.5201L36.8901 27.03H37.3601L38.7401 30.45L38.7701 30.47Z" fill="#0CA49D"/>
<path d="M42.0001 27.05V30.48H41.7701H41.6701C41.6419 30.462 41.618 30.4381 41.6001 30.41L39.6001 27.83V30.5H39.1901V27.05H39.4901L41.4901 29.63C41.4855 29.5901 41.4855 29.5499 41.4901 29.51C41.4852 29.4702 41.4852 29.4299 41.4901 29.39V27.05H42.0001Z" fill="#0CA49D"/>
<path d="M43.3001 28.54H43.4701H43.6201C43.6577 28.519 43.6914 28.492 43.7201 28.46L44.8601 27.16C44.8856 27.1248 44.9202 27.0971 44.9601 27.08C45.0027 27.0685 45.0476 27.0685 45.0901 27.08H45.4801L44.1801 28.54L44.0801 28.64L43.9901 28.7C44.0315 28.7099 44.0694 28.7306 44.1001 28.76C44.1417 28.7915 44.1787 28.8285 44.2101 28.87L45.5701 30.49H45.0901H45.0301V30.44L43.8401 29.08C43.8171 29.0426 43.7817 29.0143 43.7401 29C43.6842 28.9868 43.626 28.9868 43.5701 29H43.3701V30.57H42.9001V27.05H43.3701V28.54H43.3001Z" fill="#0CA49D"/>
<path d="M49.0002 27.54C49.0063 27.5595 49.0063 27.5805 49.0002 27.6H48.9402H48.8502L48.6402 27.54C48.5805 27.4964 48.5124 27.4657 48.4402 27.45C48.3477 27.4324 48.2527 27.4324 48.1602 27.45C48.0709 27.4341 47.9795 27.4341 47.8902 27.45C47.8148 27.468 47.7457 27.506 47.6902 27.56C47.6391 27.608 47.5983 27.6658 47.5702 27.73C47.554 27.7991 47.554 27.8709 47.5702 27.94C47.5673 28.0254 47.5918 28.1095 47.6402 28.18C47.693 28.2409 47.7535 28.2947 47.8202 28.34L48.0902 28.46L48.3902 28.56C48.4934 28.5913 48.5938 28.6315 48.6902 28.68C48.7868 28.7152 48.8752 28.7696 48.9502 28.84C49.0296 28.9098 49.0942 28.9948 49.1402 29.09C49.1911 29.203 49.215 29.3262 49.2102 29.45C49.2098 29.5938 49.1826 29.7362 49.1302 29.87C49.0808 29.9972 49.0059 30.1129 48.9102 30.21C48.8081 30.3117 48.6853 30.3902 48.5502 30.44C48.3763 30.5131 48.1886 30.5473 48.0002 30.54C47.7907 30.5428 47.583 30.5019 47.3902 30.42C47.2152 30.343 47.0559 30.2346 46.9202 30.1L47.0602 29.88L47.1102 29.83H47.1702H47.2402L47.3302 29.89L47.4402 29.98L47.5902 30.06L47.7802 30.12C47.9529 30.1726 48.1374 30.1726 48.3102 30.12C48.3905 30.0944 48.4652 30.0537 48.5302 30C48.5857 29.94 48.6328 29.8727 48.6702 29.8C48.6853 29.714 48.6853 29.626 48.6702 29.54C48.6761 29.4511 48.6514 29.3629 48.6002 29.29C48.5529 29.2212 48.4915 29.1633 48.4202 29.12C48.337 29.0756 48.25 29.0387 48.1602 29.01L47.8602 28.92L47.5502 28.8C47.4567 28.7587 47.3692 28.7049 47.2902 28.64C47.2106 28.5687 47.1489 28.4796 47.1102 28.38C47.0583 28.2603 47.0344 28.1303 47.0402 28C47.0391 27.8765 47.0629 27.7541 47.1102 27.64C47.154 27.5266 47.2223 27.4241 47.3102 27.34C47.4067 27.2509 47.5185 27.1797 47.6402 27.13C47.7876 27.0766 47.9433 27.0495 48.1002 27.05C48.2776 27.0473 48.454 27.0778 48.6202 27.14C48.778 27.1987 48.9212 27.2908 49.0402 27.41L48.9202 27.63L49.0002 27.54Z" fill="#0CA49D"/>
<path d="M51.0002 29.11V30.48H50.5402V29.11L49.2802 27.05H49.6902C49.7227 27.04 49.7576 27.04 49.7902 27.05L49.8502 27.13L50.6702 28.54L50.7502 28.7C50.7775 28.7446 50.8009 28.7914 50.8202 28.84C50.8315 28.7901 50.8518 28.7426 50.8802 28.7C50.9153 28.6432 50.9554 28.5896 51.0002 28.54L51.7802 27.21L51.8402 27.13C51.8727 27.12 51.9076 27.12 51.9402 27.13H52.3502L51.0002 29.11Z" fill="#0CA49D"/>
<path d="M54.2301 29.2L53.6901 27.81C53.6873 27.76 53.6873 27.71 53.6901 27.66L53.5801 27.54C53.5572 27.6496 53.5237 27.7568 53.4801 27.86L52.9401 29.25H54.2301V29.2ZM55.2301 30.47H54.8701C54.8375 30.48 54.8027 30.48 54.7701 30.47C54.7633 30.4438 54.7633 30.4162 54.7701 30.39L54.3501 29.54H52.8201L52.5001 30.37C52.4892 30.4024 52.4682 30.4304 52.4401 30.45C52.4078 30.4614 52.3725 30.4614 52.3401 30.45H52.0001L53.3701 27.03H53.8401L55.2201 30.45L55.2301 30.47Z" fill="#0CA49D"/>
<path d="M56.5901 28.71C56.7119 28.711 56.8332 28.6941 56.9501 28.66C57.0438 28.6276 57.1316 28.5804 57.2101 28.52C57.2773 28.464 57.329 28.3917 57.3601 28.31C57.4001 28.2221 57.4205 28.1266 57.4201 28.03C57.4249 27.9431 57.4092 27.8562 57.3745 27.7764C57.3398 27.6965 57.2869 27.6258 57.2201 27.57C57.0382 27.4558 56.8243 27.4032 56.6101 27.42H56.1001V28.71H56.5901ZM58.1801 30.47H57.7701C57.7334 30.473 57.6964 30.4663 57.6631 30.4505C57.6297 30.4347 57.6011 30.4104 57.5801 30.38L56.6901 29.15C56.6655 29.1179 56.6349 29.0907 56.6001 29.07C56.5542 29.0581 56.5061 29.0581 56.4601 29.07H56.1001V30.49H55.6401V27.05H56.6401C56.8286 27.0463 57.0168 27.0664 57.2001 27.11C57.3425 27.144 57.4756 27.2089 57.5901 27.3C57.6936 27.3763 57.7734 27.4803 57.8201 27.6C57.8727 27.7233 57.8999 27.856 57.9001 27.99C57.9015 28.1061 57.8812 28.2214 57.8401 28.33C57.8018 28.4363 57.7441 28.5346 57.6701 28.62C57.5948 28.703 57.5071 28.7738 57.4101 28.83C57.2973 28.8911 57.176 28.935 57.0501 28.96C57.1096 28.9996 57.1605 29.0506 57.2001 29.11L58.2001 30.47H58.1801Z" fill="#0CA49D"/>
<path d="M59.1101 30.48H58.6401V27.05H59.1101V30.48Z" fill="#0CA49D"/>
<path d="M61.8001 29.2L61.2701 27.81C61.2466 27.7615 61.2266 27.7113 61.2101 27.66C61.1967 27.6024 61.18 27.5457 61.1601 27.49C61.1325 27.5984 61.0992 27.7052 61.0601 27.81L60.5201 29.2H61.8001ZM62.8001 30.47H62.4401C62.4075 30.48 62.3727 30.48 62.3401 30.47C62.3155 30.4471 62.2951 30.42 62.2801 30.39L61.9301 29.54H60.3901L60.0701 30.37C60.0756 30.3826 60.0785 30.3962 60.0785 30.41C60.0785 30.4238 60.0756 30.4374 60.0701 30.45C60.0375 30.46 60.0027 30.46 59.9701 30.45H59.6101L60.9801 27.03H61.4501L62.8201 30.45L62.8001 30.47Z" fill="#0CA49D"/>
<path d="M66.0001 27.05V30.48H65.5401V28.92H63.6901V30.48H63.2201V27.05H63.6901V28.58H65.5401V27.05H66.0001Z" fill="#0CA49D"/>
<path d="M33.3601 35H32.9001V31.57H33.3601V35Z" fill="#0CA49D"/>
<path d="M37.0001 31.54V34.97H36.7701H36.6801L36.6101 34.9L34.6101 32.32V32.43C34.6146 32.4665 34.6146 32.5035 34.6101 32.54V34.99H34.2001V31.54H34.4901L36.4901 34.12V31.54H37.0001Z" fill="#0CA49D"/>
<path d="M40.8601 33.28C40.8634 33.522 40.8228 33.7626 40.7401 33.99C40.6628 34.1903 40.5473 34.3737 40.4001 34.53C40.2444 34.6804 40.061 34.7992 39.8601 34.88C39.6397 34.9629 39.4056 35.0036 39.1701 35H37.8901V31.54H39.1701C39.4055 31.5374 39.6394 31.578 39.8601 31.66C40.0629 31.7371 40.247 31.8564 40.4001 32.01C40.5532 32.1656 40.6693 32.3536 40.7401 32.56C40.8229 32.784 40.8636 33.0213 40.8601 33.26V33.28ZM40.3901 33.28C40.3929 33.0895 40.3624 32.9 40.3001 32.72C40.2557 32.5625 40.1733 32.4183 40.0601 32.3C39.9554 32.185 39.8253 32.0959 39.6801 32.04C39.5181 31.9742 39.345 31.9402 39.1701 31.94H38.3601V34.62H39.1701C39.3443 34.623 39.5175 34.5924 39.6801 34.53C39.8222 34.4682 39.9511 34.38 40.0601 34.27C40.1703 34.1495 40.2523 34.0061 40.3001 33.85C40.3624 33.6665 40.3928 33.4737 40.3901 33.28Z" fill="#0CA49D"/>
<path d="M44.7001 33.28C44.7034 33.522 44.6628 33.7625 44.5801 33.99C44.5058 34.1971 44.3862 34.385 44.2301 34.54C44.0816 34.6994 43.901 34.8256 43.7001 34.91C43.4794 34.992 43.2455 35.0326 43.0101 35.03C42.7746 35.0336 42.5406 34.9929 42.3201 34.91C42.1163 34.8257 41.9323 34.6997 41.7801 34.54C41.6271 34.3844 41.5109 34.1964 41.4401 33.99C41.28 33.5336 41.28 33.0364 41.4401 32.58C41.5134 32.3718 41.6291 32.181 41.7801 32.02C41.9353 31.8664 42.1187 31.7442 42.3201 31.66C42.536 31.5731 42.7676 31.5322 43.0001 31.54C43.2366 31.5357 43.4714 31.58 43.6901 31.67C43.8885 31.7544 44.0685 31.8767 44.2201 32.03C44.3742 32.1905 44.4934 32.3812 44.5701 32.59C44.6538 32.8105 44.6978 33.0441 44.7001 33.28ZM44.2201 33.28C44.2259 33.0901 44.1988 32.9007 44.1401 32.72C44.0872 32.561 44.0021 32.4146 43.8901 32.29C43.7825 32.1758 43.6534 32.0841 43.5101 32.02C43.2786 31.9178 43.0213 31.8888 42.7728 31.9371C42.5243 31.9854 42.2966 32.1085 42.1201 32.29C42.0148 32.4177 41.9335 32.5634 41.8801 32.72C41.817 32.8998 41.7865 33.0895 41.7901 33.28C41.7874 33.4737 41.8179 33.6665 41.8801 33.85C41.9313 34.0046 42.0129 34.1474 42.1201 34.27C42.2278 34.3886 42.3612 34.4809 42.5101 34.54C42.6696 34.6014 42.8393 34.6319 43.0101 34.63C43.1811 34.6329 43.3509 34.6023 43.5101 34.54C43.6575 34.4833 43.7881 34.3905 43.8901 34.27C44.0042 34.1507 44.0897 34.0071 44.1401 33.85C44.1996 33.6661 44.2267 33.4732 44.2201 33.28Z" fill="#0CA49D"/>
<path d="M48.1401 31.54V34.97H47.9101H47.8201C47.8201 34.97 47.8201 34.97 47.7401 34.9L45.7401 32.32V34.99H45.3401V31.54H45.6301L47.6301 34.12V31.54H48.1401Z" fill="#0CA49D"/>
<path d="M51.1301 34.62V35H49.0201V31.57H51.1301V31.95H49.4801V33.08H50.8201V33.45H49.4801V34.62H51.1301Z" fill="#0CA49D"/>
<path d="M53.5302 32.1C53.5263 32.1128 53.5199 32.1248 53.5113 32.1351C53.5027 32.1454 53.4921 32.1539 53.4802 32.16C53.4609 32.1678 53.4394 32.1678 53.4202 32.16H53.3302L53.1902 32.07C53.1305 32.0264 53.0624 31.9957 52.9902 31.98C52.9009 31.9454 52.8058 31.9284 52.7102 31.93C52.6179 31.9301 52.5264 31.9471 52.4402 31.98C52.3648 31.998 52.2957 32.036 52.2402 32.09C52.1891 32.138 52.1483 32.1958 52.1202 32.26C52.104 32.3291 52.104 32.4009 52.1202 32.47C52.1173 32.5554 52.1418 32.6395 52.1902 32.71C52.2444 32.7733 52.3086 32.8273 52.3802 32.87L52.6402 32.99L52.9402 33.09L53.2402 33.21C53.3368 33.2452 53.4252 33.2996 53.5002 33.37C53.5796 33.4398 53.6442 33.5248 53.6902 33.62C53.7411 33.733 53.765 33.8562 53.7602 33.98C53.7641 34.1241 53.7368 34.2674 53.6802 34.4C53.6308 34.5272 53.5559 34.6429 53.4602 34.74C53.3581 34.8417 53.2353 34.9202 53.1002 34.97C52.9435 35.0281 52.7771 35.0553 52.6102 35.05C52.4007 35.0527 52.193 35.0119 52.0002 34.93C51.8268 34.8554 51.6704 34.7466 51.5402 34.61L51.6702 34.39H51.7302H51.8002L51.8902 34.45L52.0002 34.54L52.1502 34.62L52.3402 34.68C52.4198 34.691 52.5005 34.691 52.5802 34.68C52.6761 34.6968 52.7742 34.6968 52.8702 34.68C52.9508 34.6582 53.0253 34.6179 53.0878 34.5624C53.1503 34.5068 53.199 34.4376 53.2302 34.36C53.2453 34.274 53.2453 34.186 53.2302 34.1C53.2332 34.0099 53.2049 33.9216 53.1502 33.85C53.1086 33.7765 53.0459 33.7173 52.9702 33.68C52.887 33.6356 52.8 33.5987 52.7102 33.57L52.4102 33.48L52.1102 33.36C52.0135 33.3187 51.9228 33.2649 51.8402 33.2C51.7668 33.1234 51.706 33.0357 51.6602 32.94C51.6083 32.8203 51.5844 32.6903 51.5902 32.56C51.5891 32.4365 51.6129 32.3141 51.6602 32.2C51.7081 32.0887 51.7759 31.9871 51.8602 31.9C51.9567 31.8109 52.0685 31.7397 52.1902 31.69C52.3376 31.6366 52.4933 31.6095 52.6502 31.61C52.8276 31.6072 53.004 31.6378 53.1702 31.7C53.328 31.7587 53.4712 31.8508 53.5902 31.97L53.4802 32.19L53.5302 32.1Z" fill="#0CA49D"/>
<path d="M54.8401 35H54.3801V31.57H54.8401V35Z" fill="#0CA49D"/>
<path d="M57.5401 33.72L57 32.33C57 32.33 57 32.24 57 32.18C56.9774 32.1253 56.9607 32.0683 56.9501 32.01C56.9196 32.1187 56.8829 32.2256 56.84 32.33L56.3101 33.72H57.5401ZM58.5401 34.99H58.19C58.1742 34.9966 58.1572 35 58.14 35C58.1229 35 58.1059 34.9966 58.09 34.99C58.0749 34.9818 58.0617 34.9704 58.0513 34.9566C58.041 34.9427 58.0337 34.9269 58.03 34.91L57.71 34.08H56.1301L55.8101 34.91C55.7991 34.9424 55.7781 34.9704 55.75 34.99C55.7177 35.0014 55.6824 35.0014 55.6501 34.99H55.3L56.67 31.54H57.14L58.51 34.96L58.5401 34.99Z" fill="#0CA49D"/>
<path d="M43.5706 42.2727V51H42.5138V42.2727H43.5706Z" fill="#F9AD3C"/>
<path d="M34.7091 51V42.2727H37.7602C38.3682 42.2727 38.8696 42.3778 39.2645 42.5881C39.6594 42.7955 39.9534 43.0753 40.1466 43.4276C40.3398 43.777 40.4364 44.1648 40.4364 44.5909C40.4364 44.9659 40.3696 45.2756 40.2361 45.5199C40.1054 45.7642 39.9321 45.9574 39.7162 46.0994C39.5031 46.2415 39.2716 46.3466 39.0216 46.4148V46.5C39.2887 46.5171 39.5571 46.6108 39.827 46.7813C40.0969 46.9517 40.3227 47.196 40.5046 47.5142C40.6864 47.8324 40.7773 48.2216 40.7773 48.6818C40.7773 49.1193 40.6779 49.5128 40.479 49.8622C40.2801 50.2117 39.9662 50.4886 39.5372 50.6932C39.1083 50.8977 38.55 51 37.8625 51H34.7091ZM35.7659 50.0625H37.8625C38.5529 50.0625 39.0429 49.929 39.3327 49.6619C39.6253 49.3921 39.7716 49.0653 39.7716 48.6818C39.7716 48.3864 39.6963 48.1136 39.5458 47.8636C39.3952 47.6108 39.1807 47.4091 38.9023 47.2585C38.6239 47.1051 38.2943 47.0284 37.9137 47.0284H35.7659V50.0625ZM35.7659 46.108H37.7262C38.0443 46.108 38.3313 46.0455 38.5869 45.9205C38.8455 45.7955 39.05 45.6193 39.2006 45.3921C39.354 45.1648 39.4307 44.8977 39.4307 44.5909C39.4307 44.2074 39.2972 43.8821 39.0301 43.6151C38.7631 43.3452 38.3398 43.2102 37.7602 43.2102H35.7659V46.108Z" fill="#F9AD3C"/>
<path d="M31.8295 44.4545C31.7784 44.0227 31.571 43.6875 31.2073 43.4489C30.8437 43.2102 30.3977 43.0909 29.8693 43.0909C29.4829 43.0909 29.1448 43.1534 28.8551 43.2784C28.5681 43.4034 28.3437 43.5753 28.1818 43.794C28.0227 44.0128 27.9431 44.2614 27.9431 44.5398C27.9431 44.7727 27.9985 44.973 28.1093 45.1406C28.223 45.3054 28.3678 45.4432 28.544 45.554C28.7201 45.6619 28.9048 45.7514 29.098 45.8224C29.2911 45.8906 29.4687 45.946 29.6306 45.9886L30.517 46.2273C30.7443 46.2869 30.9971 46.3693 31.2755 46.4744C31.5568 46.5795 31.8252 46.723 32.0809 46.9048C32.3394 47.0838 32.5525 47.3139 32.7201 47.5952C32.8877 47.8764 32.9715 48.2216 32.9715 48.6307C32.9715 49.1023 32.848 49.5284 32.6008 49.9091C32.3565 50.2898 31.9985 50.5923 31.5269 50.8168C31.0582 51.0412 30.4886 51.1534 29.8181 51.1534C29.1931 51.1534 28.6519 51.0526 28.1945 50.8509C27.74 50.6492 27.382 50.3679 27.1207 50.0071C26.8622 49.6463 26.7159 49.2273 26.6818 48.75H27.7727C27.8011 49.0795 27.9119 49.3523 28.1051 49.5682C28.3011 49.7813 28.5482 49.9403 28.8465 50.0455C29.1477 50.1477 29.4715 50.1989 29.8181 50.1989C30.2215 50.1989 30.5838 50.1335 30.9048 50.0028C31.2258 49.8693 31.4801 49.6847 31.6676 49.4489C31.8551 49.2102 31.9488 48.9318 31.9488 48.6136C31.9488 48.3239 31.8678 48.0881 31.7059 47.9063C31.544 47.7244 31.3309 47.5767 31.0667 47.4631C30.8025 47.3494 30.517 47.25 30.2102 47.1648L29.1363 46.858C28.4545 46.6619 27.9147 46.3821 27.517 46.0185C27.1193 45.6548 26.9204 45.179 26.9204 44.5909C26.9204 44.1023 27.0525 43.6761 27.3167 43.3125C27.5838 42.946 27.9417 42.6619 28.3906 42.4602C28.8423 42.2557 29.3465 42.1534 29.9034 42.1534C30.4659 42.1534 30.9659 42.2543 31.4034 42.456C31.8409 42.6548 32.1874 42.9276 32.4431 43.2742C32.7016 43.6207 32.838 44.0142 32.8522 44.4545H31.8295Z" fill="#F9AD3C"/>
</g>
<defs>
<clipPath id="clip0_474_6595">
<rect width="72" height="72" fill="white"/>
</clipPath>
</defs>
</svg>
