<svg xmlns="http://www.w3.org/2000/svg" viewBox="0 0 72 72"><defs><style>.cls-1{fill:#a02128;}.cls-2{fill:none;}</style></defs><g id="Layer_2" data-name="Layer 2"><g id="Layer_1-2" data-name="Layer 1"><path class="cls-1" d="M27.47,31.75l1.45-1.35,1.87-1.76a1.26,1.26,0,0,1,1-.39,1.13,1.13,0,0,1,.81.41.87.87,0,0,1-.1,1.19c-.35.36-.74.68-1.12,1l-1.7,1.51c-.22.19-.22.21,0,.43,1,1.09,2,2.18,3,3.28a1.23,1.23,0,0,1,.37.71.86.86,0,0,1-.42.89,1.09,1.09,0,0,1-1.14,0,2.82,2.82,0,0,1-.7-.68l-2.55-2.84c-.26-.29-.37-.28-.62,0a.89.89,0,0,0-.2.6c0,.69,0,1.37,0,2.06a1,1,0,0,1-1.25,1,.94.94,0,0,1-.91-1V26.7a.89.89,0,0,1,.59-1,1.24,1.24,0,0,1,1.31.21.93.93,0,0,1,.26.73v4.81A.44.44,0,0,0,27.47,31.75Z"/><path class="cls-1" d="M49.47,29.26c.13-.1.25-.21.38-.29a4.64,4.64,0,0,1,5-.34,3.73,3.73,0,0,1,1.83,2.66,5.86,5.86,0,0,1,.13,1.26c0,1.4,0,2.81,0,4.21a.93.93,0,0,1-.47,1,1.28,1.28,0,0,1-1.31-.06.91.91,0,0,1-.38-.84V32.76a4.57,4.57,0,0,0-.14-1.22,2.12,2.12,0,0,0-2.75-1.46,3.2,3.2,0,0,0-2.33,3.07c0,1.18,0,2.37,0,3.55v.2a.87.87,0,0,1-.9,1,1.41,1.41,0,0,1-.54,0,.87.87,0,0,1-.71-.8,2.26,2.26,0,0,1,0-.26V29.36a1.12,1.12,0,0,1,.23-.77,1.15,1.15,0,0,1,1.19-.3.9.9,0,0,1,.72.76A2.09,2.09,0,0,0,49.47,29.26Z"/><path class="cls-1" d="M13.7,30.66c0,.94.05,2.11,0,3.28a4.06,4.06,0,0,1-3,3.78,5.81,5.81,0,0,1-3.57.09,4.68,4.68,0,0,1-2.56-1.87A3.44,3.44,0,0,1,4,34a1.09,1.09,0,0,1,1-1.06,1,1,0,0,1,1.15.88c0,.19,0,.39.09.58A2.11,2.11,0,0,0,7.86,36a3.13,3.13,0,0,0,2.53-.31,2.46,2.46,0,0,0,1.19-2.3c0-1.6,0-3.19,0-4.79,0-.17,0-.35,0-.52s-.05-.36-.35-.36H9.55c-.37,0-.74,0-1.11,0A1,1,0,0,1,7.51,27a.94.94,0,0,1,.75-1.16,4.32,4.32,0,0,1,.8,0c1.19,0,2.38,0,3.57,0a1,1,0,0,1,1.07,1.06Z"/><path class="cls-1" d="M42.22,45c0,.62,0,1.13,0,1.63a.69.69,0,0,1-.95.73c-.34-.07-.5-.28-.5-.69V44a2.5,2.5,0,0,0-.15-.9,1.36,1.36,0,0,0-1.73-.85,2,2,0,0,0-1.52,2c0,.76,0,1.52,0,2.28v.23a.61.61,0,0,1-.69.65c-.51,0-.75-.23-.76-.75V44a2.51,2.51,0,0,0-.1-.77,1.39,1.39,0,0,0-1.9-.93,2,2,0,0,0-1.38,1.82c-.05.65,0,1.3,0,1.94,0,.21,0,.41,0,.61,0,.59-.31.85-.89.77a.59.59,0,0,1-.53-.54c0-.11,0-.21,0-.32V41.9c0-.09,0-.19,0-.29a.63.63,0,0,1,.54-.61c.41-.06.7.06.82.4s.14.17.29.06a3.09,3.09,0,0,1,3.62,0,1.52,1.52,0,0,1,.4.4c.11.16.17.17.31,0a3.12,3.12,0,0,1,2.34-1,3.31,3.31,0,0,1,1.12.2,2.51,2.51,0,0,1,1.63,2.06A12.43,12.43,0,0,1,42.22,45Z"/><path class="cls-1" d="M58.81,43.34V40a.72.72,0,0,1,1.09-.67.58.58,0,0,1,.33.48,1.83,1.83,0,0,1,0,.33v6.49a.73.73,0,0,1-1,.7.62.62,0,0,1-.4-.62V43.34Z"/><path class="cls-1" d="M58.49,44.19v2.43a.71.71,0,0,1-1,.75.58.58,0,0,1-.47-.61V41.69a.62.62,0,0,1,.68-.7c.49,0,.75.21.75.68,0,.84,0,1.68,0,2.52Z"/><path class="cls-1" d="M57.76,39.28a.65.65,0,0,1,.74.69.7.7,0,0,1-.76.75A.64.64,0,0,1,57,40,.62.62,0,0,1,57.76,39.28Z"/><path class="cls-1" d="M46.56,29.26A6,6,0,0,0,44.5,25.9a7,7,0,0,0-4.66-1.49,8,8,0,0,0-1.63.2,6,6,0,0,0-4.37,3.47,7.66,7.66,0,0,0-.26,5.76,5.9,5.9,0,0,0,3.53,3.75,7.83,7.83,0,0,0,5.23.2,5.61,5.61,0,0,0,3.41-2.58A7.61,7.61,0,0,0,46.56,29.26Zm-8.83,7.19a.36.36,0,0,1-.17-.21c-.37-.8-.75-1.6-1.12-2.41a.62.62,0,0,1,.06-.68,3.09,3.09,0,0,0,.42-.69c.67,1.45,1.33,2.87,2,4.32A4.8,4.8,0,0,1,37.73,36.45Zm3,.39h-.11c-.42.06-.53,0-.72-.38-.54-1.14-1.07-2.29-1.6-3.44-.2-.4-.38-.81-.58-1.22a.75.75,0,0,1,.09-.92,2,2,0,0,0,.34-.57l.68,1.46L41,36.4C41.17,36.78,41.16,36.79,40.74,36.84Zm2-.65c-.54.29-.57.28-.83-.27-1-2.09-2-4.17-2.93-6.26a.8.8,0,0,1,.12-.94,1.8,1.8,0,0,0,.31-.55c.22.48.43.91.63,1.34l2.88,6.17C43,36,43,36,42.72,36.19Zm1.65-1.34c-.12.13-.24.25-.35.38s-.16.13-.23,0c-.24-.54-.49-1.07-.74-1.6-.94-2-1.88-4-2.83-6.05a.84.84,0,0,1,.12-1,1.48,1.48,0,0,0,.29-.51c.12.26.23.47.33.69l3.51,7.5C44.63,34.56,44.62,34.58,44.37,34.85Z"/><path class="cls-1" d="M60.3,34.1h6.23a.81.81,0,0,0,.89-.84,6.06,6.06,0,0,0-.17-1.85,4.13,4.13,0,0,0-2.4-2.91,5.41,5.41,0,0,0-3-.35,4.4,4.4,0,0,0-3.61,2.69,5.85,5.85,0,0,0-.44,3.06A4.21,4.21,0,0,0,60,37.31a5.81,5.81,0,0,0,5.35.19,2.42,2.42,0,0,0,1-.78,1,1,0,0,0-.1-1.36,1,1,0,0,0-1.35,0,3.49,3.49,0,0,1-1.32.66,2.88,2.88,0,0,1-3.47-1.63C60,34.15,60,34.1,60.3,34.1Zm-.27-2A2.68,2.68,0,0,1,62.66,30a2.59,2.59,0,0,1,2.13.8,2.66,2.66,0,0,1,.61,1.5c0,.16-.08.15-.18.15h-5C60,32.41,60,32.36,60,32.12Z"/><path class="cls-1" d="M23.68,29.26a.94.94,0,0,0-.79-1,1.12,1.12,0,0,0-1.23.43c-.15.26-.15.26-.4.11a4.47,4.47,0,0,0-2.91-.71,4.19,4.19,0,0,0-3.52,2.36,5.82,5.82,0,0,0-.16,5,3.59,3.59,0,0,0,1.71,2.07,4.76,4.76,0,0,0,5-.29c.14-.09.19-.08.24.06a.94.94,0,0,0,.43.49,1.09,1.09,0,0,0,1.66-1V29.26Zm-2.16,3.82c0,.41,0,.83,0,1.24a1.14,1.14,0,0,1-.28.79A3.18,3.18,0,0,1,18,36a2.12,2.12,0,0,1-1.24-1.13,3.87,3.87,0,0,1-.23-2.93,2.61,2.61,0,0,1,4.22-1.29,2.37,2.37,0,0,1,.49.46,1.11,1.11,0,0,1,.25.72C21.5,32.22,21.52,32.65,21.52,33.08Z"/><path class="cls-1" d="M56.37,43a2.86,2.86,0,0,0-4.56-1.52s-.06.08-.11,0,0-.07,0-.1c0-.28,0-.55,0-.83a5.38,5.38,0,0,0,0-.8.55.55,0,0,0-.29-.42.73.73,0,0,0-1.15.67v6.64a.68.68,0,0,0,.19.56A.77.77,0,0,0,51.61,47c0-.14.09-.14.2-.06a3.15,3.15,0,0,0,1.24.55,2.64,2.64,0,0,0,3.14-1.65A4.41,4.41,0,0,0,56.37,43Zm-1.76,2.6a1.8,1.8,0,0,1-2.85-.23,1,1,0,0,1-.12-.54c0-.17,0-.34,0-.51a3.86,3.86,0,0,1,0-1,1.69,1.69,0,0,1,3.25.08A2.39,2.39,0,0,1,54.61,45.6Z"/><path class="cls-1" d="M66.12,41.67a3.2,3.2,0,0,0-2.06-.8,3.13,3.13,0,0,0-2.92,1.39,3.66,3.66,0,0,0-.52,2.44,2.74,2.74,0,0,0,1.19,2.18,3.89,3.89,0,0,0,3.86.27,1.73,1.73,0,0,0,.61-.46.65.65,0,0,0-.71-1.06,1.05,1.05,0,0,0-.31.17,2.28,2.28,0,0,1-1.13.44,1.91,1.91,0,0,1-1.95-1.06c-.1-.23-.08-.26.16-.26.67,0,1.33,0,2,0h1.82l.39,0a.49.49,0,0,0,.49-.51,3.13,3.13,0,0,0,0-.53A3.09,3.09,0,0,0,66.12,41.67Zm-.63,2.12H62.27c-.17,0-.21,0-.16-.22a1.89,1.89,0,0,1,2.51-1.33,1.63,1.63,0,0,1,1.06,1.39C65.71,43.79,65.6,43.79,65.49,43.79Z"/><path class="cls-1" d="M48.86,41.77a3.26,3.26,0,0,0-2.39-.89,3.57,3.57,0,0,0-1.95.5,3.32,3.32,0,0,0-1.37,3.43,3.28,3.28,0,0,0,1,1.94,3.39,3.39,0,0,0,2,.75,3.35,3.35,0,0,0,2.66-.8,3.53,3.53,0,0,0,.09-4.93ZM47.36,46a1.86,1.86,0,0,1-2.77-1.63,2.17,2.17,0,0,1,.49-1.62,1.85,1.85,0,0,1,3.19.91,3.44,3.44,0,0,1,.06.58A1.89,1.89,0,0,1,47.36,46Z"/><rect class="cls-2" width="72" height="72"/></g></g></svg>